<mxfile host="app.diagrams.net" modified="2024-05-31T22:50:17.082Z" agent="Mozilla/5.0 (X11; Linux x86_64) AppleWebKit/537.36 (KHTML, like Gecko) Chrome/125.0.0.0 Safari/537.36" version="24.4.10" etag="VvwJld1Bn5FZlifTDiG1" type="github">
  <diagram name="Page-1" id="dFoMPFqmiuXSDlFLrBvA">
    <mxGraphModel>
      <root>
        <mxCell id="0" />
        <mxCell id="1" parent="0" />
      </root>
    </mxGraphModel>
  </diagram>
</mxfile>
